<svg xmlns="http://www.w3.org/2000/svg" viewBox="0 0 400 400"><defs><symbol id="oe-c" viewBox="-50 -50 100 100"><circle r="50"/><ellipse cx="-20" cy="-24" rx="9.5" ry="16" transform="rotate(36 -20 -24)" fill="#fff" opacity=".5"/><ellipse cx="-31" cy="-3" rx="3" ry="5" transform="rotate(20 -31 -3)" fill="#fff" opacity=".35"/></symbol><symbol id="oe-d" viewBox="-50 -50 100 100"><circle r="50"/><circle r="50" fill="#3A1F2B" opacity=".09"/><ellipse cx="-20" cy="-24" rx="9.5" ry="16" transform="rotate(36 -20 -24)" fill="#fff" opacity=".32"/></symbol><symbol id="oe-b" viewBox="-60 -64 120 132" overflow="visible"><path d="M0-58C31-58 50-35 50-8 50 21 28 46 5 54L0 56-5 54C-28 46-50 21-50-8-50-35-31-58 0-58Z"/><path d="M-6 63 0 54 6 63C3 65-3 65-6 63Z"/><path d="M-6 63 0 54 6 63C3 65-3 65-6 63Z" fill="#3A1F2B" opacity=".18"/><ellipse cx="-21" cy="-29" rx="10" ry="18" transform="rotate(32 -21 -29)" fill="#fff" opacity=".5"/><ellipse cx="-30" cy="-6" rx="3" ry="5" transform="rotate(20 -30 -6)" fill="#fff" opacity=".35"/></symbol><linearGradient id="oe-gold" x1="0" y1="0" x2="1" y2="1"><stop offset="0" stop-color="#FFF3C4"/><stop offset=".3" stop-color="#F7C948"/><stop offset=".55" stop-color="#FFE9A0"/><stop offset=".8" stop-color="#E3A21A"/><stop offset="1" stop-color="#F9D46A"/></linearGradient><linearGradient id="oe-silver" x1="0" y1="0" x2="1" y2="1"><stop offset="0" stop-color="#FFFFFF"/><stop offset=".35" stop-color="#DDE4EE"/><stop offset=".55" stop-color="#F7F9FC"/><stop offset=".85" stop-color="#AEBBCC"/><stop offset="1" stop-color="#F1E4DF"/></linearGradient><linearGradient id="oe-cyl" x1="0" y1="0" x2="1" y2="0"><stop offset="0" stop-color="#F1E4DF"/><stop offset=".22" stop-color="#FFFFFF"/><stop offset=".6" stop-color="#FFFFFF"/><stop offset="1" stop-color="#E4D2CB"/></linearGradient><filter id="oe-sh" x="-30%" y="-100%" width="160%" height="300%"><feGaussianBlur stdDeviation="4"/></filter><radialGradient id="oe-g-sun" cx=".4" cy=".34" r=".72" fx=".3" fy=".24"><stop offset="0" stop-color="#FFEBAE"/><stop offset=".45" stop-color="#FFC940"/><stop offset="1" stop-color="#E29E12"/></radialGradient><radialGradient id="oe-g-coral" cx=".4" cy=".34" r=".72" fx=".3" fy=".24"><stop offset="0" stop-color="#FFB0A3"/><stop offset=".45" stop-color="#FF6F5E"/><stop offset="1" stop-color="#D94430"/></radialGradient><radialGradient id="oe-g-pearl" cx=".4" cy=".34" r=".72" fx=".3" fy=".24"><stop offset="0" stop-color="#FFFFFF"/><stop offset=".45" stop-color="#F4F6FA"/><stop offset="1" stop-color="#C9D3E1"/></radialGradient></defs><ellipse cx="200" cy="350" rx="138" ry="7" fill="#3A1F2B" opacity="0.12" filter="url(#oe-sh)"/><g fill="none" stroke-linecap="round" stroke-linejoin="round"><path d="M112 148L152 116V300" stroke="#E0A21B" stroke-width="43"/><path d="M112 148L152 116V300" stroke="url(#oe-gold)" stroke-width="40"/><path d="M112 148L152 116V300" stroke="#FFFFFF" stroke-opacity=".45" stroke-width="10.4" transform="translate(-4.8 -4.8)"/><path d="M112 148L152 116V300" stroke="#E3A21A" stroke-opacity=".45" stroke-width="1.4"/></g><g fill="none" stroke-linecap="round" stroke-linejoin="round"><path d="M210 164a36 34 0 1 0 72 0a36 34 0 1 0 -72 0ZM202 254a44 44 0 1 0 88 0a44 44 0 1 0 -88 0Z" stroke="#E0A21B" stroke-width="39"/><path d="M210 164a36 34 0 1 0 72 0a36 34 0 1 0 -72 0ZM202 254a44 44 0 1 0 88 0a44 44 0 1 0 -88 0Z" stroke="url(#oe-gold)" stroke-width="36"/><path d="M210 164a36 34 0 1 0 72 0a36 34 0 1 0 -72 0ZM202 254a44 44 0 1 0 88 0a44 44 0 1 0 -88 0Z" stroke="#FFFFFF" stroke-opacity=".45" stroke-width="9.4" transform="translate(-4.3 -4.3)"/><path d="M210 164a36 34 0 1 0 72 0a36 34 0 1 0 -72 0ZM202 254a44 44 0 1 0 88 0a44 44 0 1 0 -88 0Z" stroke="#E3A21A" stroke-opacity=".45" stroke-width="1.4"/></g><use href="#oe-d" x="30.3" y="305.1" width="41.3" height="41.3" fill="url(#oe-g-sun)"/><use href="#oe-d" x="46" y="339.6" width="35.3" height="35.3" fill="url(#oe-g-coral)"/><use href="#oe-d" x="66.4" y="299.8" width="37.2" height="37.2" fill="url(#oe-g-pearl)"/><use href="#oe-d" x="73.9" y="331.2" width="34.8" height="34.8" fill="url(#oe-g-coral)"/><use href="#oe-d" x="96.7" y="287.5" width="38.6" height="38.6" fill="url(#oe-g-coral)"/><use href="#oe-d" x="94.2" y="315.8" width="35.1" height="35.1" fill="url(#oe-g-sun)"/><use href="#oe-d" x="128.7" y="293.9" width="40.5" height="40.5" fill="url(#oe-g-coral)"/><use href="#oe-d" x="123.4" y="323.6" width="35" height="35" fill="url(#oe-g-coral)"/><use href="#oe-d" x="150.6" y="301" width="42.4" height="42.4" fill="url(#oe-g-sun)"/><use href="#oe-d" x="154.1" y="329.3" width="35.1" height="35.1" fill="url(#oe-g-pearl)"/><use href="#oe-d" x="179.7" y="303.8" width="39" height="39" fill="url(#oe-g-coral)"/><use href="#oe-d" x="183.3" y="331.8" width="35.9" height="35.9" fill="url(#oe-g-coral)"/><use href="#oe-d" x="207.8" y="302" width="33.8" height="33.8" fill="url(#oe-g-coral)"/><use href="#oe-d" x="206.2" y="321.8" width="41.8" height="41.8" fill="url(#oe-g-coral)"/><use href="#oe-d" x="232.5" y="295.9" width="42.4" height="42.4" fill="url(#oe-g-pearl)"/><use href="#oe-d" x="239.1" y="318.2" width="38.8" height="38.8" fill="url(#oe-g-pearl)"/><use href="#oe-d" x="266.9" y="290.3" width="41.4" height="41.4" fill="url(#oe-g-pearl)"/><use href="#oe-d" x="256.8" y="316" width="39.9" height="39.9" fill="url(#oe-g-coral)"/><use href="#oe-d" x="301.6" y="301.1" width="39" height="39" fill="url(#oe-g-coral)"/><use href="#oe-d" x="289.8" y="329.3" width="35.6" height="35.6" fill="url(#oe-g-coral)"/><use href="#oe-d" x="324" y="324.6" width="38.6" height="38.6" fill="url(#oe-g-sun)"/><use href="#oe-d" x="319.6" y="322.7" width="41.2" height="41.2" fill="url(#oe-g-coral)"/><use href="#oe-c" x="40.1" y="318.8" width="45.2" height="45.2" fill="url(#oe-g-sun)"/><use href="#oe-c" x="99.3" y="300.3" width="41.5" height="41.5" fill="url(#oe-g-coral)"/><use href="#oe-c" x="153.3" y="308.9" width="46.1" height="46.1" fill="url(#oe-g-coral)"/><use href="#oe-c" x="201.7" y="303.3" width="43.1" height="43.1" fill="url(#oe-g-pearl)"/><use href="#oe-c" x="266.5" y="301.5" width="40.2" height="40.2" fill="url(#oe-g-sun)"/><use href="#oe-c" x="319.7" y="328.8" width="37.9" height="37.9" fill="url(#oe-g-sun)"/><use href="#oe-c" x="33.2" y="344.4" width="13.5" height="13.5" fill="url(#oe-g-pearl)"/><use href="#oe-c" x="61.4" y="310.7" width="9.8" height="9.8" fill="url(#oe-g-coral)"/><use href="#oe-c" x="107.4" y="332.4" width="12.1" height="12.1" fill="url(#oe-g-coral)"/><use href="#oe-c" x="77.9" y="347.9" width="11.5" height="11.5" fill="url(#oe-g-coral)"/><use href="#oe-c" x="122.6" y="334.1" width="10.8" height="10.8" fill="url(#oe-g-pearl)"/><use href="#oe-c" x="92.1" y="293.6" width="12.9" height="12.9" fill="url(#oe-g-coral)"/><use href="#oe-c" x="153.9" y="339.9" width="9.9" height="9.9" fill="url(#oe-g-coral)"/><use href="#oe-c" x="117.1" y="322.4" width="11.2" height="11.2" fill="url(#oe-g-coral)"/><use href="#oe-c" x="154.1" y="311.7" width="10.8" height="10.8" fill="url(#oe-g-sun)"/><use href="#oe-c" x="185" y="330.3" width="11.4" height="11.4" fill="url(#oe-g-pearl)"/><use href="#oe-c" x="188.5" y="346.8" width="9.7" height="9.7" fill="url(#oe-g-coral)"/><use href="#oe-c" x="208.5" y="340.2" width="11.2" height="11.2" fill="url(#oe-g-pearl)"/><use href="#oe-c" x="241.6" y="323.9" width="13.9" height="13.9" fill="url(#oe-g-coral)"/><use href="#oe-c" x="240.1" y="321.8" width="12.9" height="12.9" fill="url(#oe-g-coral)"/><use href="#oe-c" x="271" y="327.7" width="13.7" height="13.7" fill="url(#oe-g-sun)"/><use href="#oe-c" x="270.2" y="312.1" width="13.4" height="13.4" fill="url(#oe-g-coral)"/><use href="#oe-c" x="257.2" y="310.4" width="13.4" height="13.4" fill="url(#oe-g-pearl)"/><use href="#oe-c" x="277.1" y="294.2" width="11.4" height="11.4" fill="url(#oe-g-sun)"/><use href="#oe-c" x="300.3" y="351.6" width="12.4" height="12.4" fill="url(#oe-g-coral)"/><use href="#oe-c" x="297" y="343.4" width="10" height="10" fill="url(#oe-g-coral)"/><use href="#oe-c" x="361.7" y="348.3" width="10.5" height="10.5" fill="url(#oe-g-coral)"/><use href="#oe-c" x="72.8" y="313.2" width="23.7" height="23.7" fill="url(#oe-g-sun)"/><use href="#oe-c" x="127.9" y="319.1" width="29.7" height="29.7" fill="url(#oe-g-sun)"/><use href="#oe-c" x="186.3" y="328.2" width="30.1" height="30.1" fill="url(#oe-g-coral)"/><use href="#oe-c" x="243" y="306.5" width="23.2" height="23.2" fill="url(#oe-g-sun)"/><use href="#oe-c" x="298.8" y="325.2" width="25.4" height="25.4" fill="url(#oe-g-coral)"/><g><circle cx="350.7" cy="104.6" r="3.1" fill="#FFB8AC"/><rect x="335.8" y="40.4" width="7" height="3" rx="1.5" fill="#FFB8AC" transform="rotate(50 335.8 40.4)"/><rect x="227.8" y="40.1" width="7" height="3" rx="1.5" fill="#FFB8AC" transform="rotate(47 227.8 40.1)"/><rect x="190.7" y="91.6" width="7" height="3" rx="1.5" fill="#F7C948" transform="rotate(40 190.7 91.6)"/><circle cx="182.2" cy="70.1" r="2.6" fill="#F7C948"/><circle cx="79.3" cy="51.8" r="2.8" fill="#FFB8AC"/><circle cx="99.3" cy="104.8" r="2.6" fill="#F7C948"/><rect x="79.1" y="67.5" width="7" height="3" rx="1.5" fill="#FF6F5E" transform="rotate(-31 79.1 67.5)"/><circle cx="237.7" cy="99.9" r="2.3" fill="#FFB8AC"/><rect x="326.2" y="67.7" width="7" height="3" rx="1.5" fill="#F7C948" transform="rotate(-30 326.2 67.7)"/><circle cx="168.8" cy="35.2" r="2.8" fill="#F7C948"/><rect x="246.8" y="47.2" width="7" height="3" rx="1.5" fill="#F7C948" transform="rotate(24 246.8 47.2)"/><rect x="218.8" y="31.3" width="7" height="3" rx="1.5" fill="#FF6F5E" transform="rotate(43 218.8 31.3)"/><rect x="187.1" y="54" width="7" height="3" rx="1.5" fill="#FFB8AC" transform="rotate(59 187.1 54)"/></g></svg>
